<svg width="24" height="24" viewBox="0 0 274 353" fill="none" xmlns="http://www.w3.org/2000/svg">
<path d="M55.5 317L41 219C70 221 74 213.5 75 214.5C75.2203 214.72 76.7513 216.591 79.3416 219C86.3296 225.499 101.027 235.914 118.5 228.407C123.947 226.067 129.663 221.985 135.5 215.5C144.291 228.127 155.381 234.571 166.5 236.761C182.549 239.921 198.657 234.217 208 225.444C212.433 221.28 215.343 216.426 216 211.5C230.4 212.7 241 211 244.5 210C241.5 223.167 231.6 265.3 216 328.5C209.345 333.316 202.478 337.294 195.5 340.523C183.661 346.001 171.5 349.323 159.5 350.918C146.976 352.583 134.626 352.368 123 350.76C111.438 349.162 100.591 346.187 91 342.317C74.5914 335.696 61.8572 326.454 55.5 317Z" fill="#FFF1F1"/>
<path d="M122.5 349C115.3 349.8 98.1667 344 90.5 341C88.1667 317.833 82.6 261 79 219C93 233.8 111.5 231.5 119 228.5C119.833 248.5 121.7 300.6 122.5 349Z" fill="#FED7DA"/>
<path d="M207 227C192.5 238.5 177 239 167 237.5C165.167 266.5 160.8 331.7 160 350.5C170 349.5 189 343.5 196.5 339.5C198.833 314.333 204.2 256.6 207 227Z" fill="#FED7DA"/>
<path d="M0.315648 169.068C-4.48435 121.068 46.649 90.4009 72.8157 81.0675C91.7101 75.8552 143.397 68.6054 201.74 80.2271C204.452 80.7673 207.141 81.5686 209.692 82.6355C268.573 107.261 276.742 148.621 273.315 166.568C271.649 184.901 262.185 224.932 214.5 216.5C191.185 263.932 147.982 236.401 132.315 218.568C122.982 229.734 98.0155 244.868 72.8157 216.068C59.8159 227.068 6.31565 229.068 0.315648 169.068Z" fill="#774717"/>
<circle cx="72" cy="128" r="6" fill="#D9D9D9"/>
<circle cx="39" cy="167" r="6" fill="#D9D9D9"/>
<circle cx="99" cy="170" r="6" fill="#D9D9D9"/>
<circle cx="170" cy="184" r="6" fill="#D9D9D9"/>
<circle cx="180" cy="140" r="6" fill="#D9D9D9"/>
<circle cx="220" cy="125" r="6" fill="#D9D9D9"/>
<circle cx="232" cy="173" r="6" fill="#D9D9D9"/>
<path d="M65.4461 53.9511C73.6272 93.229 114.52 137.592 136.5 154.188C162 124.689 218.539 82.827 216 40.6883C213.517 -0.523327 156.794 -15.6018 134.462 19.937C134.257 20.2636 133.766 20.2654 133.568 19.9345C122.693 1.79314 85.5976 -2.06133 68.997 28.2941C64.7404 36.0777 63.6371 45.266 65.4461 53.9511Z" fill="#E55175"/>
</svg>
