<svg width="324" height="342" viewBox="0 0 324 342" fill="none" xmlns="http://www.w3.org/2000/svg">
<rect width="324" height="342" fill="white"/>
<path d="M137.152 281.566C137.371 281.566 137.591 281.522 137.81 281.478C140.666 280.995 148.134 267.729 150.33 264.302L150.593 263.907C150.637 263.819 150.637 263.731 150.637 263.643C150.637 263.468 150.55 263.292 150.418 263.16C150.33 263.116 150.198 263.072 150.11 263.072C149.935 263.072 149.803 263.116 149.671 263.248L149.407 263.511C146.772 266.938 142.686 273.307 140.139 276.207C139.831 276.602 139.48 276.953 139.084 277.261C138.909 277.393 138.777 277.437 138.645 277.437C138.25 277.437 137.986 276.997 137.942 276.558C137.942 275.592 138.03 274.625 138.162 273.659C138.645 270.76 139.436 267.992 140.446 265.269C141.544 262.282 142.862 259.426 144.092 256.527C145.015 254.331 145.849 252.134 146.42 249.806C146.64 248.927 146.86 248.005 146.86 247.082V246.863C146.86 245.677 146.552 244.579 145.805 243.656C145.146 242.865 144.268 242.426 143.214 242.426C142.467 242.426 141.764 242.602 141.105 242.865C139.48 243.524 138.074 244.447 136.844 245.677C134.823 247.697 133.198 249.982 131.88 252.53C130.87 254.462 129.903 256.439 128.893 258.416C128.849 258.504 128.805 258.679 128.63 258.767L128.673 258.592C129.245 257.01 129.772 255.385 130.299 253.803C131.133 251.256 131.88 248.708 132.188 246.028L132.276 245.106C132.276 243.964 131.924 242.909 131.177 241.943C130.343 240.845 129.288 240.274 128.015 240.274L127.356 240.318C126.609 240.405 125.95 240.669 125.335 241.064C124.5 241.548 123.797 242.206 123.139 242.909C122.216 243.92 121.469 245.018 120.766 246.16C117.999 250.816 116.198 255.868 115.056 261.139C114.353 264.39 113.782 267.641 113.299 270.935V270.54C113.299 269.749 113.387 268.959 113.474 268.212C113.826 265.093 114.353 262.018 114.924 258.987C115.627 255.253 116.374 251.563 116.989 247.829C117.208 246.599 117.384 245.413 117.384 244.183L117.34 243.217C117.252 242.25 117.033 241.284 116.549 240.449C115.847 239.263 114.836 238.648 113.518 238.648H113.123C112.332 238.692 111.673 239.044 111.014 239.439C110.136 239.966 109.389 240.581 108.73 241.328C106.27 244.139 105.304 247.39 105.304 250.948V251.651C105.304 252.134 105.436 252.573 105.655 252.969C105.787 253.232 106.007 253.452 106.314 253.584L106.578 253.628C106.841 253.628 107.149 253.452 107.281 253.188L107.325 252.969C107.325 252.925 107.325 252.837 107.237 252.793C107.105 252.749 107.105 252.617 107.105 252.53V252.354C107.193 251.431 107.281 250.465 107.456 249.542C107.808 247.917 108.379 246.336 109.257 244.886C109.741 244.007 110.356 243.261 111.102 242.602C111.629 242.206 112.157 241.811 112.772 241.635H112.991C113.123 241.635 113.167 241.679 113.211 241.899C113.255 242.119 113.255 242.338 113.255 242.558L113.211 243.436C113.079 244.579 112.903 245.721 112.728 246.863C112.288 249.806 111.673 252.705 111.102 255.648C110.268 259.997 109.433 264.346 109.038 268.783C108.906 270.232 108.818 271.682 108.818 273.132C108.818 274.23 108.862 275.328 108.994 276.426C109.082 277.612 109.389 278.754 109.916 279.853C110.136 280.292 110.443 280.731 110.839 281.039C111.278 281.39 111.717 281.566 112.2 281.566C112.903 281.566 113.562 281.171 114.002 280.468C114.177 280.204 114.265 279.897 114.397 279.545C114.748 278.535 114.924 277.437 115.144 276.382C115.451 274.889 115.627 273.395 115.847 271.946C116.198 269.837 116.637 267.816 117.033 265.752C117.779 262.018 118.702 258.416 119.976 254.858C121.03 252.002 122.26 249.279 123.973 246.775C124.5 245.984 125.071 245.237 125.774 244.579C126.17 244.227 126.565 243.876 127.048 243.612C127.312 243.48 127.487 243.393 127.619 243.393C127.839 243.393 127.927 243.612 127.927 244.139C127.927 245.633 127.707 247.039 127.356 248.488C126.785 250.641 126.038 252.749 125.335 254.858C124.412 257.669 123.446 260.437 122.963 263.38C122.743 264.961 122.524 266.543 122.524 268.168C122.524 268.959 122.699 269.705 123.007 270.452C123.182 270.847 123.446 271.155 123.754 271.462C124.149 271.814 124.588 271.946 125.071 271.946C125.686 271.946 126.301 271.638 126.697 271.067C126.828 270.847 126.916 270.628 127.004 270.408L127.4 269.398C128.234 267.158 128.893 264.873 129.86 262.677C131.617 258.592 133.725 254.638 136.273 250.948C136.756 250.333 137.239 249.674 137.723 249.103C138.909 247.785 140.27 246.687 141.852 245.94C142.028 245.809 142.247 245.721 142.467 245.721H142.599V245.984C142.599 246.511 142.511 246.995 142.467 247.522C142.247 248.84 141.852 250.113 141.413 251.387C140.534 253.847 139.48 256.176 138.469 258.548C137.239 261.447 136.009 264.39 135.131 267.421C134.428 269.969 133.813 272.561 133.637 275.24L133.593 276.251C133.593 277.041 133.681 277.832 133.857 278.579C134.208 280.116 135.526 281.566 137.152 281.566ZM152.071 269.31V269.002C152.071 268.387 152.203 267.772 152.379 267.201C152.994 265.356 154.048 263.819 155.629 262.633C156.025 262.369 157.87 261.052 158.748 261.052C159.407 261.052 159.188 261.447 159.319 262.238C159.319 262.325 159.232 262.413 159.144 262.457C156.684 264.566 155.234 267.114 152.906 268.827C152.642 269.002 152.423 269.178 152.071 269.31ZM160.418 284.026C161.033 284.026 161.691 283.762 162.263 283.323C164.195 281.829 168.193 270.408 169.467 267.465L171.048 263.775L171.136 263.424C171.136 263.16 171.004 263.116 170.741 263.072C170.609 263.072 170.477 263.16 170.345 263.38C167.973 267.509 166.611 271.419 164.195 275.767C163.624 276.734 163.053 277.7 162.306 278.579C162.043 278.974 161.735 279.282 161.34 279.545C161.208 279.413 161.208 279.282 161.164 279.15C161.033 278.623 160.989 278.052 160.989 277.481C161.12 273.176 162.438 269.793 163.976 265.708C164.151 265.137 164.239 264.566 164.239 263.995C164.239 262.633 163.668 260.964 162.35 260.964C161.604 261.095 161.34 261.183 160.637 261.491C160.505 261.535 160.461 261.623 160.33 261.623H160.286L160.33 260.832C160.33 260.217 160.154 259.602 159.715 259.075C158.88 258.152 157.694 257.669 156.552 257.669C155.981 257.669 155.454 257.801 154.97 258.02C150.622 259.997 147.678 264.698 147.678 269.486C147.678 270.76 147.766 271.594 148.513 272.605C149.216 273.571 150.226 274.01 151.281 274.01C152.335 274.01 153.345 273.527 153.96 272.648C155.498 270.452 156.728 268.08 158.177 266.059C158.617 265.4 159.056 264.785 159.627 264.214C159.671 264.126 159.759 264.039 159.89 264.039V264.126C158.265 268.607 156.596 272.517 156.596 277.481C156.596 279.326 156.991 281.434 158.177 282.884C158.792 283.63 159.583 284.026 160.418 284.026ZM171.039 259.865C169.853 259.734 170.117 259.426 169.985 258.152C169.985 255.121 171.171 252.573 173.763 250.772C173.938 251.168 173.982 251.519 173.982 251.871V252.178C173.982 254.726 172.884 257.406 171.435 259.646C171.347 259.778 171.215 259.865 171.039 259.865ZM176.354 281.566C177.541 281.566 178.683 281.039 179.517 280.116C182.021 277.129 184.481 272.78 186.941 269.046C187.951 267.641 188.962 266.235 190.06 264.873C190.367 264.522 190.939 264.083 190.939 263.643C190.939 263.292 190.631 263.116 190.367 263.116C190.104 263.116 189.796 263.336 189.489 263.599C188.083 264.698 186.809 266.499 185.667 267.948C183.295 270.979 180.923 274.493 177.584 276.47C177.409 276.558 177.277 276.69 177.057 276.69L177.013 276.514C177.013 276.382 177.057 276.251 177.101 276.119C177.233 275.416 177.497 274.801 177.76 274.142C178.595 272.341 179.561 270.54 180.572 268.827C181.889 266.543 182.812 265.049 183.075 262.721C183.075 260.788 181.187 259.646 179.166 259.646C177.189 259.646 176.311 259.822 174.246 259.909L173.455 259.865C175.388 256.659 176.398 254.462 176.486 250.86C176.486 248.488 175.3 247.126 172.972 246.995C172.006 246.995 171.083 247.302 170.292 247.917C167.261 250.465 165.636 253.891 165.636 258.108C165.636 259.558 165.944 261.052 166.778 262.194C167.832 263.775 169.721 264.302 171.566 264.302C173.938 264.302 175.608 263.292 177.628 262.984C177.848 262.94 178.112 262.853 178.331 262.853L178.595 262.896C178.595 263.116 178.507 263.292 178.419 263.468C177.716 265.356 176.442 267.158 175.476 269.002C174.07 271.682 172.577 274.362 172.577 277.173C172.577 278.93 173.104 280.512 174.817 281.258C175.3 281.478 175.827 281.566 176.354 281.566ZM191.693 280.951C192.308 280.951 192.967 280.687 193.538 280.248C195.295 278.886 199.512 267.289 201.006 263.775L201.093 263.468C201.093 263.204 200.962 263.16 200.698 263.072C200.566 263.072 200.391 263.16 200.259 263.38C198.458 266.806 197.272 269.53 195.471 272.692C194.9 273.659 194.329 274.625 193.582 275.548C193.318 275.899 193.011 276.251 192.615 276.47C192.396 276.295 192.396 275.636 192.352 275.416L192.308 274.01C192.308 270.496 192.967 266.718 194.285 263.687C194.548 263.072 194.68 262.545 194.68 262.106C194.68 260.832 193.845 260.129 192.835 260.129C191.956 260.129 190.946 260.7 190.287 262.018C189.98 262.633 189.716 263.292 189.496 263.995C188.53 267.289 187.959 270.628 187.959 274.054C187.959 276.207 188.091 278.183 189.453 279.809C190.068 280.556 190.858 280.951 191.693 280.951ZM195.295 258.592C195.69 258.592 196.086 258.416 196.305 258.02C196.745 257.274 197.184 256.571 197.579 255.824C197.843 255.253 198.106 254.638 198.502 254.111C198.765 253.759 198.853 253.408 198.853 253.013C198.853 251.958 198.018 250.816 196.701 250.816C195.866 250.816 195.207 251.212 194.724 251.871C193.889 252.969 193.406 254.243 193.406 255.648C193.406 257.098 194.021 258.592 195.295 258.592ZM202.563 269.31V269.002C202.563 268.387 202.694 267.772 202.87 267.201C203.485 265.356 204.539 263.819 206.121 262.633C206.516 262.369 208.361 261.052 209.24 261.052C209.899 261.052 209.679 261.447 209.811 262.238C209.811 262.325 209.723 262.413 209.635 262.457C207.175 264.566 205.725 267.114 203.397 268.827C203.134 269.002 202.914 269.178 202.563 269.31ZM210.909 284.026C211.524 284.026 212.183 283.762 212.754 283.323C214.687 281.829 218.684 270.408 219.958 267.465L221.539 263.775L221.627 263.424C221.627 263.16 221.496 263.116 221.232 263.072C221.1 263.072 220.968 263.16 220.837 263.38C218.465 267.509 217.103 271.419 214.687 275.767C214.116 276.734 213.545 277.7 212.798 278.579C212.534 278.974 212.227 279.282 211.831 279.545C211.7 279.413 211.7 279.282 211.656 279.15C211.524 278.623 211.48 278.052 211.48 277.481C211.612 273.176 212.93 269.793 214.467 265.708C214.643 265.137 214.731 264.566 214.731 263.995C214.731 262.633 214.16 260.964 212.842 260.964C212.095 261.095 211.831 261.183 211.129 261.491C210.997 261.535 210.953 261.623 210.821 261.623H210.777L210.821 260.832C210.821 260.217 210.645 259.602 210.206 259.075C209.371 258.152 208.185 257.669 207.043 257.669C206.472 257.669 205.945 257.801 205.462 258.02C201.113 259.997 198.17 264.698 198.17 269.486C198.17 270.76 198.258 271.594 199.004 272.605C199.707 273.571 200.718 274.01 201.772 274.01C202.826 274.01 203.837 273.527 204.452 272.648C205.989 270.452 207.219 268.08 208.669 266.059C209.108 265.4 209.547 264.785 210.118 264.214C210.162 264.126 210.25 264.039 210.382 264.039V264.126C208.756 268.607 207.087 272.517 207.087 277.481C207.087 279.326 207.483 281.434 208.669 282.884C209.284 283.63 210.074 284.026 210.909 284.026Z" fill="#EF416B"/>
<circle cx="162" cy="209" r="113.026" stroke="#5CE1E6" stroke-width="5.94872" stroke-dasharray="11.9 5.95"/>
<path d="M141.929 201.682L138.313 177.248C145.544 177.747 146.541 175.877 146.791 176.126C146.846 176.181 147.227 176.647 147.873 177.248C149.615 178.868 153.28 181.465 157.636 179.593C158.995 179.01 160.42 177.992 161.875 176.375C164.067 179.523 166.832 181.13 169.604 181.676C173.606 182.464 177.622 181.042 179.951 178.855C181.057 177.816 181.782 176.606 181.946 175.378C185.536 175.677 188.179 175.253 189.052 175.004C188.304 178.287 185.835 188.792 181.946 204.549C180.287 205.75 178.575 206.742 176.835 207.547C173.883 208.913 170.851 209.741 167.859 210.139C164.736 210.554 161.657 210.5 158.758 210.099C155.876 209.701 153.171 208.959 150.78 207.994C146.689 206.343 143.514 204.039 141.929 201.682Z" fill="#FFF1F1"/>
<path d="M158.635 209.66C156.84 209.859 152.568 208.413 150.656 207.665C150.075 201.889 148.687 187.719 147.789 177.247C151.28 180.937 155.892 180.364 157.762 179.616C157.97 184.602 158.435 197.592 158.635 209.66Z" fill="#FED7DA"/>
<path d="M179.704 179.242C176.089 182.109 172.224 182.234 169.731 181.86C169.274 189.09 168.185 205.346 167.985 210.034C170.479 209.784 175.216 208.288 177.086 207.291C177.668 201.016 179.006 186.622 179.704 179.242Z" fill="#FED7DA"/>
<path d="M128.17 164.798C126.974 152.83 139.723 145.184 146.247 142.857C150.958 141.557 163.845 139.75 178.391 142.647C179.067 142.782 179.738 142.982 180.374 143.248C195.055 149.388 197.091 159.7 196.237 164.175C195.822 168.745 193.462 178.726 181.573 176.624C175.76 188.45 164.988 181.586 161.082 177.14C158.755 179.924 152.53 183.697 146.247 176.516C143.006 179.259 129.666 179.758 128.17 164.798Z" fill="#774717"/>
<path d="M146.043 156.054C146.869 156.054 147.539 155.385 147.539 154.558C147.539 153.732 146.869 153.062 146.043 153.062C145.217 153.062 144.547 153.732 144.547 154.558C144.547 155.385 145.217 156.054 146.043 156.054Z" fill="#D9D9D9"/>
<path d="M137.816 165.779C138.642 165.779 139.312 165.109 139.312 164.283C139.312 163.456 138.642 162.787 137.816 162.787C136.99 162.787 136.32 163.456 136.32 164.283C136.32 165.109 136.99 165.779 137.816 165.779Z" fill="#D9D9D9"/>
<path d="M152.776 166.526C153.602 166.526 154.272 165.856 154.272 165.03C154.272 164.203 153.602 163.534 152.776 163.534C151.95 163.534 151.28 164.203 151.28 165.03C151.28 165.856 151.95 166.526 152.776 166.526Z" fill="#D9D9D9"/>
<path d="M170.477 170.016C171.304 170.016 171.973 169.347 171.973 168.52C171.973 167.694 171.304 167.024 170.477 167.024C169.651 167.024 168.981 167.694 168.981 168.52C168.981 169.347 169.651 170.016 170.477 170.016Z" fill="#D9D9D9"/>
<path d="M172.971 159.047C173.797 159.047 174.467 158.377 174.467 157.551C174.467 156.725 173.797 156.055 172.971 156.055C172.144 156.055 171.475 156.725 171.475 157.551C171.475 158.377 172.144 159.047 172.971 159.047Z" fill="#D9D9D9"/>
<path d="M182.944 155.306C183.77 155.306 184.44 154.637 184.44 153.81C184.44 152.984 183.77 152.314 182.944 152.314C182.118 152.314 181.448 152.984 181.448 153.81C181.448 154.637 182.118 155.306 182.944 155.306Z" fill="#D9D9D9"/>
<path d="M185.936 167.274C186.763 167.274 187.432 166.604 187.432 165.778C187.432 164.952 186.763 164.282 185.936 164.282C185.11 164.282 184.44 164.952 184.44 165.778C184.44 166.604 185.11 167.274 185.936 167.274Z" fill="#D9D9D9"/>
<path d="M144.411 136.096C146.45 145.889 156.646 156.95 162.126 161.088C168.484 153.733 182.581 143.296 181.948 132.789C181.329 122.514 167.186 118.755 161.618 127.615C161.567 127.697 161.445 127.697 161.395 127.615C158.684 123.092 149.435 122.131 145.296 129.699C144.235 131.64 143.959 133.931 144.411 136.096Z" fill="#E55175"/>
<path d="M153.932 224.6C154.035 224.498 154.152 224.446 154.285 224.446C154.387 224.446 154.483 224.476 154.571 224.534C154.674 224.593 154.748 224.667 154.792 224.755C154.836 224.843 154.851 224.946 154.836 225.064C154.836 225.167 154.792 225.27 154.704 225.372C153.954 226.137 153.108 226.688 152.167 227.027C151.226 227.35 150.226 227.556 149.168 227.644H148.991C148.668 228.438 148.241 229.262 147.712 230.114C147.183 230.953 146.572 231.725 145.881 232.43C145.19 233.136 144.433 233.71 143.61 234.151C142.786 234.606 141.919 234.834 141.007 234.834C140.345 234.834 139.728 234.717 139.154 234.481C138.596 234.261 138.096 233.945 137.654 233.533C137.228 233.121 136.883 232.636 136.618 232.077C136.353 231.519 136.184 230.908 136.111 230.247C136.066 229.806 136.066 229.335 136.111 228.835C136.155 228.321 136.258 227.835 136.419 227.38C136.581 226.909 136.809 226.483 137.103 226.1C137.397 225.703 137.765 225.394 138.206 225.174C138.397 225.071 138.596 224.99 138.801 224.931C139.007 224.873 139.213 224.828 139.419 224.799C139.654 223.843 139.889 222.895 140.125 221.954C140.36 221.013 140.603 220.072 140.853 219.131C140.941 218.866 141.11 218.734 141.36 218.734C141.522 218.734 141.661 218.8 141.779 218.932C141.911 219.05 141.948 219.212 141.889 219.417C141.727 220.064 141.558 220.704 141.382 221.336C141.22 221.968 141.058 222.615 140.897 223.277C141.058 222.91 141.228 222.549 141.404 222.196C141.58 221.829 141.757 221.461 141.933 221.094C142.139 220.682 142.374 220.182 142.639 219.594C142.918 218.991 143.235 218.41 143.587 217.851C143.955 217.278 144.367 216.778 144.823 216.352C145.278 215.925 145.778 215.683 146.322 215.624C146.749 215.565 147.124 215.646 147.447 215.866C147.785 216.087 148.08 216.374 148.329 216.727C148.579 217.065 148.785 217.44 148.947 217.851C149.109 218.248 149.241 218.609 149.344 218.932C149.726 220.153 149.925 221.417 149.94 222.726C149.954 224.034 149.77 225.306 149.388 226.541C150.226 226.497 151.035 226.328 151.814 226.034C152.594 225.725 153.299 225.247 153.932 224.6ZM144.801 218.182C144.154 219.094 143.587 220.057 143.102 221.072C142.632 222.086 142.169 223.101 141.713 224.115C141.654 224.233 141.602 224.351 141.558 224.468C141.514 224.586 141.463 224.703 141.404 224.821C142.183 224.939 142.955 225.122 143.72 225.372C144.484 225.622 145.175 225.85 145.793 226.056C146.587 226.291 147.41 226.446 148.263 226.519C148.278 226.49 148.293 226.453 148.307 226.409C148.322 226.365 148.337 226.328 148.352 226.299C148.704 225.122 148.866 223.909 148.837 222.66C148.822 221.41 148.624 220.204 148.241 219.042C148.197 218.881 148.131 218.675 148.043 218.425C147.955 218.175 147.844 217.932 147.712 217.697C147.58 217.462 147.433 217.249 147.271 217.057C147.109 216.866 146.925 216.749 146.719 216.705C146.514 216.66 146.315 216.69 146.124 216.793C145.933 216.881 145.756 217.006 145.595 217.168C145.433 217.329 145.278 217.506 145.131 217.697C144.999 217.888 144.889 218.05 144.801 218.182ZM139.948 233.621C140.301 233.71 140.654 233.754 141.007 233.754C141.757 233.754 142.477 233.562 143.168 233.18C143.859 232.813 144.499 232.327 145.087 231.725C145.675 231.136 146.205 230.482 146.675 229.762C147.146 229.026 147.535 228.313 147.844 227.622C147.388 227.578 146.94 227.504 146.499 227.402C146.058 227.284 145.617 227.159 145.175 227.027C144.749 226.894 144.315 226.762 143.874 226.63C143.433 226.483 142.992 226.358 142.551 226.255C142.271 226.181 141.999 226.122 141.735 226.078C141.47 226.019 141.198 225.975 140.919 225.946C140.625 226.696 140.338 227.438 140.059 228.174C139.794 228.909 139.544 229.659 139.309 230.423C139.22 230.673 139.059 230.798 138.823 230.798C138.662 230.798 138.515 230.739 138.382 230.622C138.265 230.504 138.228 230.342 138.272 230.136C138.404 229.445 138.544 228.762 138.691 228.085C138.838 227.409 138.985 226.733 139.132 226.056C138.72 226.174 138.353 226.394 138.029 226.718C137.721 227.027 137.485 227.482 137.324 228.085C137.177 228.629 137.118 229.195 137.147 229.784C137.177 230.372 137.302 230.923 137.522 231.438C137.728 231.952 138.029 232.401 138.426 232.783C138.838 233.18 139.345 233.46 139.948 233.621ZM164.09 223.696C164.192 223.534 164.34 223.454 164.531 223.454C164.737 223.454 164.906 223.534 165.038 223.696C165.17 223.843 165.163 224.02 165.016 224.226C164.781 224.578 164.516 224.946 164.222 225.328C163.928 225.696 163.612 226.049 163.273 226.387C162.95 226.71 162.59 226.997 162.193 227.247C161.81 227.497 161.399 227.681 160.958 227.799C160.649 228.725 160.208 229.541 159.634 230.247C159.076 230.953 158.414 231.408 157.649 231.614H157.495C156.451 231.747 155.627 231.592 155.025 231.151C154.422 230.71 154.003 230.114 153.767 229.365C153.517 228.6 153.444 227.754 153.547 226.828C153.635 225.887 153.87 224.99 154.253 224.137C154.62 223.284 155.105 222.542 155.708 221.91C156.311 221.277 157.002 220.888 157.782 220.741C158.046 220.697 158.296 220.675 158.531 220.675C159.178 220.675 159.708 220.844 160.119 221.182C160.546 221.52 160.869 221.968 161.09 222.527C161.311 223.071 161.435 223.696 161.465 224.402C161.494 225.093 161.435 225.799 161.288 226.519C161.553 226.402 161.818 226.233 162.082 226.012C162.347 225.791 162.597 225.549 162.832 225.284C163.082 225.005 163.318 224.725 163.538 224.446C163.759 224.167 163.943 223.917 164.09 223.696ZM157.385 230.556C157.929 230.409 158.406 230.085 158.818 229.585C159.23 229.07 159.561 228.475 159.811 227.799C159.546 227.696 159.348 227.534 159.215 227.313C159.083 227.078 159.024 226.828 159.039 226.563C159.053 226.299 159.134 226.041 159.281 225.791C159.443 225.527 159.678 225.321 159.987 225.174C160.134 225.13 160.252 225.115 160.34 225.13C160.369 224.674 160.347 224.248 160.274 223.851C160.215 223.439 160.105 223.079 159.943 222.77C159.796 222.461 159.59 222.218 159.325 222.042C159.076 221.851 158.774 221.755 158.421 221.755C158.245 221.755 158.054 221.777 157.848 221.821C157.304 221.954 156.804 222.277 156.348 222.792C155.892 223.292 155.517 223.88 155.223 224.556C154.929 225.233 154.731 225.939 154.628 226.674C154.525 227.409 154.547 228.078 154.694 228.681C154.841 229.284 155.128 229.769 155.554 230.136C155.995 230.489 156.605 230.629 157.385 230.556ZM160.208 226.365C160.119 226.483 160.097 226.586 160.142 226.674C160.171 226.527 160.193 226.424 160.208 226.365ZM174.931 223.255C175.049 223.079 175.188 222.99 175.35 222.99C175.541 222.99 175.703 223.079 175.835 223.255C175.968 223.417 175.975 223.601 175.857 223.806C175.343 224.645 174.828 225.475 174.313 226.299C173.799 227.122 173.24 227.924 172.637 228.703C172.299 229.159 171.931 229.629 171.534 230.114C171.137 230.585 170.682 230.953 170.167 231.217C169.902 231.35 169.645 231.416 169.395 231.416C168.969 231.416 168.608 231.217 168.314 230.82C168.153 230.585 168.05 230.342 168.005 230.092C167.961 229.842 167.954 229.592 167.983 229.342C168.028 229.078 168.094 228.82 168.182 228.571C168.27 228.306 168.358 228.056 168.447 227.821C168.476 227.747 168.55 227.556 168.667 227.247C168.785 226.938 168.917 226.571 169.064 226.144C169.211 225.718 169.358 225.27 169.505 224.799C169.667 224.314 169.792 223.865 169.88 223.454C169.983 223.042 170.042 222.696 170.057 222.417C170.071 222.138 170.013 221.991 169.88 221.976C169.777 221.961 169.66 221.998 169.527 222.086C169.41 222.174 169.285 222.285 169.152 222.417C169.02 222.535 168.895 222.66 168.777 222.792C168.675 222.91 168.594 223.005 168.535 223.079C167.432 224.255 166.432 225.534 165.535 226.916C164.653 228.284 163.778 229.659 162.911 231.041C162.808 231.203 162.661 231.283 162.469 231.283C162.308 231.283 162.161 231.225 162.028 231.107C161.896 230.989 161.859 230.828 161.918 230.622C162.374 229.137 162.844 227.666 163.33 226.211C163.815 224.755 164.322 223.299 164.852 221.844C164.896 221.726 164.962 221.638 165.05 221.579C165.153 221.52 165.263 221.491 165.381 221.491C165.557 221.491 165.704 221.549 165.822 221.667C165.954 221.77 165.984 221.924 165.91 222.13C165.601 222.939 165.307 223.748 165.028 224.556C164.749 225.365 164.477 226.181 164.212 227.005C164.727 226.225 165.249 225.468 165.778 224.733C166.322 223.998 166.903 223.277 167.52 222.571C167.653 222.439 167.807 222.277 167.983 222.086C168.16 221.895 168.351 221.711 168.557 221.535C168.763 221.358 168.976 221.211 169.196 221.094C169.432 220.961 169.66 220.895 169.88 220.895C170.086 220.895 170.27 220.947 170.432 221.05C170.711 221.226 170.895 221.469 170.983 221.777C171.071 222.086 171.101 222.417 171.071 222.77C171.057 223.123 171.005 223.468 170.917 223.806C170.829 224.145 170.755 224.439 170.696 224.689C170.608 225.071 170.483 225.453 170.321 225.836C170.16 226.218 169.998 226.6 169.836 226.983C169.674 227.35 169.52 227.725 169.373 228.107C169.241 228.49 169.145 228.879 169.086 229.276C169.042 229.615 169.049 229.857 169.108 230.004C169.167 230.151 169.255 230.225 169.373 230.225C169.535 230.225 169.741 230.129 169.991 229.938C170.24 229.732 170.49 229.504 170.74 229.254C170.99 229.004 171.218 228.762 171.424 228.526C171.63 228.276 171.77 228.1 171.843 227.997C172.402 227.247 172.931 226.475 173.431 225.681C173.946 224.873 174.446 224.064 174.931 223.255ZM186.21 223.365C186.327 223.189 186.474 223.101 186.651 223.101C186.842 223.101 187.004 223.189 187.136 223.365C187.268 223.527 187.268 223.711 187.136 223.917C186.548 224.873 185.952 225.814 185.35 226.74C184.761 227.666 184.122 228.571 183.431 229.453C183.298 229.615 183.151 229.813 182.99 230.048C182.828 230.269 182.644 230.489 182.438 230.71C182.247 230.916 182.034 231.092 181.799 231.239C181.578 231.401 181.35 231.489 181.115 231.504C180.762 231.548 180.49 231.467 180.299 231.261C180.108 231.07 179.968 230.806 179.88 230.467C179.792 230.129 179.747 229.739 179.747 229.298C179.762 228.857 179.792 228.409 179.836 227.953C179.615 228.203 179.343 228.475 179.02 228.769C178.696 229.063 178.343 229.342 177.961 229.607C177.593 229.857 177.211 230.07 176.814 230.247C176.417 230.423 176.042 230.511 175.689 230.511C175.351 230.511 175.057 230.438 174.807 230.291C174.557 230.129 174.351 229.916 174.189 229.651C174.028 229.387 173.91 229.078 173.836 228.725C173.763 228.372 173.734 227.997 173.748 227.6C173.763 227.218 173.814 226.784 173.903 226.299C173.991 225.799 174.123 225.284 174.3 224.755C174.461 224.226 174.66 223.711 174.895 223.211C175.145 222.696 175.424 222.241 175.733 221.844C176.057 221.447 176.417 221.123 176.814 220.873C177.226 220.623 177.667 220.498 178.137 220.498C178.593 220.498 179.005 220.63 179.372 220.895C179.755 221.16 180.086 221.491 180.365 221.888C180.659 222.285 180.887 222.726 181.049 223.211C181.225 223.681 181.335 224.13 181.38 224.556C181.38 224.586 181.38 224.615 181.38 224.645C181.394 224.659 181.394 224.681 181.38 224.711C181.394 224.784 181.387 224.85 181.358 224.909V224.953C181.402 225.071 181.416 225.189 181.402 225.306C181.284 225.983 181.166 226.666 181.049 227.357C180.931 228.049 180.88 228.747 180.894 229.453C180.909 229.747 180.924 229.967 180.938 230.114C180.953 230.261 180.997 230.335 181.071 230.335C181.13 230.335 181.299 230.21 181.578 229.96C182.049 229.504 182.49 229.012 182.901 228.482C183.328 227.938 183.725 227.38 184.092 226.806C184.475 226.233 184.835 225.659 185.173 225.086C185.526 224.498 185.872 223.924 186.21 223.365ZM177.52 228.548C177.829 228.313 178.137 228.056 178.446 227.777C178.77 227.497 179.064 227.203 179.328 226.894C179.593 226.571 179.814 226.225 179.99 225.858C180.166 225.49 180.269 225.108 180.299 224.711C180.299 224.417 180.247 224.093 180.144 223.74C180.056 223.373 179.917 223.035 179.725 222.726C179.549 222.417 179.321 222.16 179.042 221.954C178.777 221.733 178.468 221.623 178.115 221.623C177.733 221.623 177.395 221.777 177.101 222.086C176.807 222.38 176.557 222.696 176.351 223.035C175.924 223.711 175.572 224.439 175.292 225.218C175.013 225.997 174.858 226.791 174.829 227.6C174.814 227.777 174.814 227.968 174.829 228.174C174.829 228.379 174.851 228.578 174.895 228.769C174.954 228.945 175.035 229.1 175.138 229.232C175.255 229.35 175.424 229.423 175.645 229.453C175.807 229.467 175.969 229.445 176.13 229.387C176.307 229.328 176.476 229.254 176.638 229.166C176.799 229.063 176.954 228.96 177.101 228.857C177.262 228.74 177.402 228.637 177.52 228.548Z" fill="black"/>
</svg>
